<?xml version="1.0" standalone="no"?>
<!DOCTYPE svg PUBLIC "-//W3C//DTD SVG 20010904//EN"
 "http://www.w3.org/TR/2001/REC-SVG-20010904/DTD/svg10.dtd">
<svg version="1.0" xmlns="http://www.w3.org/2000/svg"
 width="1200.000000pt" height="1200.000000pt" viewBox="0 0 1200.000000 1200.000000"
 preserveAspectRatio="xMidYMid meet">

<g transform="translate(0.000000,1200.000000) scale(0.100000,-0.100000)"
fill="#000000" stroke="none">
<path d="M6610 9819 c-164 -25 -299 -96 -426 -223 -103 -103 -159 -191 -200
-311 -23 -68 -28 -102 -32 -221 -5 -166 13 -259 77 -389 73 -148 223 -295 371
-364 120 -56 216 -74 370 -69 112 4 148 10 215 32 123 42 208 97 316 205 82
82 103 111 142 191 68 139 82 199 82 365 -1 162 -14 225 -76 351 -99 203 -290
359 -504 414 -94 24 -245 33 -335 19z"/>
<path d="M5822 7190 c-497 -81 -905 -150 -908 -152 -8 -8 -64 -181 -64 -197 0
-14 21 -16 153 -17 177 -1 232 -16 311 -85 101 -89 122 -175 91 -374 -25 -165
-54 -269 -440 -1595 -529 -1819 -489 -1663 -489 -1895 0 -139 2 -156 28 -230
46 -134 122 -240 227 -319 289 -217 762 -202 1167 39 144 86 252 174 417 339
161 162 258 279 399 480 71 101 241 372 253 401 2 8 -30 33 -82 64 -48 28 -90
51 -93 51 -4 -1 -40 -50 -81 -111 -219 -328 -462 -603 -589 -665 -52 -26 -139
-25 -173 1 -90 68 -95 147 -26 415 32 121 1006 3518 1143 3983 5 16 -7 17
-168 16 l-173 -1 -903 -148z"/>
</g>
</svg>
